<?xml version="1.0" encoding="utf-8" ?><svg xmlns="http://www.w3.org/2000/svg" xmlns:xlink="http://www.w3.org/1999/xlink" width="480" height="480" viewBox="0 0 480 480"><clipPath id="cl_3"><rect x="-0.00048828125" width="480" height="480"/></clipPath><g clip-path="url(#cl_3)"><path fill="#174065" transform="matrix(0.469208 0 0 0.453686 -0.000488281 0)" d="M496.352 52.6989C759.505 43.8675 979.914 250.175 988.451 513.313C996.987 776.451 790.413 996.608 527.241 1004.85C264.487 1013.08 44.7349 806.919 36.2119 544.199C27.689 281.479 233.617 61.5163 496.352 52.6989Z"/><path fill="#7EE3C7" transform="matrix(0.469208 0 0 0.453686 -0.000488281 0)" d="M607.323 265.094C626.035 267.967 624.365 289.469 624.157 303.667L647.317 302.652C680.929 301.438 716.638 304.78 716.574 347.037C716.534 372.955 716.713 399.219 716.744 425.165L716.854 583.515L716.966 665.106C716.985 683.982 717.571 703.537 715.28 722.258C710.729 759.444 671.462 754.377 644.314 754.278L585.005 754.243L377.345 754.345C360.836 754.766 330.994 756.67 319.109 743.336C302.674 724.897 307.219 691.623 307.374 668.518L307.596 583.501L307.654 428.277C307.608 401.788 307.324 375.176 307.449 348.7C307.709 293.648 361.529 302.443 399.537 303.765C398.873 286.62 395.816 276.469 412.175 265.843C435.856 268.676 432.424 285.311 431.751 303.927C485.19 303.371 538.632 303.316 592.072 303.762C591.714 288.889 590.459 270.97 607.323 265.094Z"/><path fill="#174065" transform="matrix(0.469208 0 0 0.453686 -0.000488281 0)" d="M650.222 336.545C655.011 336.58 680.756 336.88 681.359 342.542C684.813 374.974 683.196 408.778 683.15 441.468L683.135 577.056L683.369 644.392C683.555 666.736 685.554 698.1 679.078 718.87L678.25 718.952C657.784 720.934 629.309 720.68 608.406 720.711C574.792 720.776 541.177 720.641 507.565 720.305L405.536 719.654C399.746 719.634 349.125 720.906 345.016 717.776C339.693 713.722 340.9 683.29 340.989 673.889L341.033 458C341.027 434.258 340.351 410.607 340.315 386.878C340.29 370.435 340.668 353.387 344.531 337.337L399.761 336.839C399.106 347.353 398.932 364.266 406.337 372.639C412.098 379.152 419.689 378.528 425.341 372.444C433.468 363.696 432.414 347.816 432.364 336.876L592.079 336.848C592.103 347.29 591.578 378.753 607.801 377.113C627.017 375.17 624.672 350.717 624.578 337.206C632.785 336.742 641.938 336.728 650.222 336.545Z"/><path fill="#7EE3C7" transform="matrix(0.469208 0 0 0.453686 -0.000488281 0)" d="M398.439 566.971C406.5 566.803 415.061 567.173 423.196 567.142C446.746 566.867 470.298 566.855 493.848 567.106L625.719 567.361L625.727 598.239L398.267 598.231C398.225 587.81 398.282 577.39 398.439 566.971Z"/><path fill="#7EE3C7" transform="matrix(0.469208 0 0 0.453686 -0.000488281 0)" d="M398.284 496.452L625.757 496.503L625.739 527.486L398.292 527.313L398.284 496.452Z"/><path fill="#7EE3C7" transform="matrix(0.469208 0 0 0.453686 -0.000488281 0)" d="M398.211 425.04L625.763 425.148L625.768 455.895C600.768 455.364 573.82 455.82 548.697 455.81L398.255 455.752L398.211 425.04Z"/><path fill="#7EE3C7" transform="matrix(0.469208 0 0 0.453686 -0.000488281 0)" d="M418.589 637.737C445.261 637.599 471.933 637.663 498.604 637.931L498.623 668.918L479.064 669.088C452.132 669.008 425.2 669.151 398.271 669.517L398.268 637.901C405.042 637.928 411.817 637.874 418.589 637.737Z"/></g></svg>